# xmcd
#
# Track frame offsets:
#	150
#	11797
#	28493
#	40278
#	55246
#	71599
#	85295
#	98343
#	115072
#	129853
#	144168
#	160599
#	173460
#	188011
#	199785
#	217474
#	241202
#
# Disc length: 3436 seconds
#
# Revision: 2
# Processed by: cddbd v1.5.2PL0 Copyright (c) Steve Scherf et al.
# Submitted via: EasyCDDAExtractor 15.3.0.1
#
DISCID=e20d6a11
DTITLE=Selena - Through The Years - A Traves De Los Años
DYEAR=2007
DGENRE=Latin
TTITLE0=Feelings
TTITLE1=Como Te Quiero Yo A Ti
TTITLE2=Tu Solamente Tu
TTITLE3=Tu No Sabes
TTITLE4=Que
TTITLE5=Sukiyaki
TTITLE6=Amame, Quiereme
TTITLE7=Yo Te Amo
TTITLE8=Ya Ves
TTITLE9=Yo Te Sigo Queriendo
TTITLE10=Amame
TTITLE11=No Debes Jugar
TTITLE12=La Llamada
TTITLE13=Fotos Y Recuerdos
TTITLE14=Ya No
TTITLE15=Dreaming Of You
TTITLE16=Puede Ser
EXTD=
EXTT0=
EXTT1=
EXTT2=
EXTT3=
EXTT4=
EXTT5=
EXTT6=
EXTT7=
EXTT8=
EXTT9=
EXTT10=
EXTT11=
EXTT12=
EXTT13=
EXTT14=
EXTT15=
EXTT16=
PLAYORDER=
